<svg xmlns="http://www.w3.org/2000/svg" version="1.1" xmlns:xlink="http://www.w3.org/1999/xlink" xmlns:svgjs="http://svgjs.dev/svgjs" width="1440" height="560" preserveAspectRatio="none" viewBox="0 0 1440 560"><g mask="url(&quot;#SvgjsMask1000&quot;)" fill="none"><rect width="1440" height="560" x="0" y="0" fill="#0e2a47"></rect><path d="M704.9 96.64L713.47 96.64L713.47 117.67L704.9 117.67z" stroke="#e73635"></path><path d="M576.85 432.87 a27.76 27.76 0 1 0 55.52 0 a27.76 27.76 0 1 0 -55.52 0z" fill="#e73635"></path><path d="M276 372.2L320.8 372.2L320.8 373.52L276 373.52z" stroke="#037b0b"></path><path d="M318.84 359.6a3.54 3.54 0 1 0 6.39-3.04z" stroke="#037b0b"></path><path d="M103.48 39.71a27.7 27.7 0 1 0-19.76 51.76z" fill="#d3b714"></path><path d="M988.64 506.4a2.31 2.31 0 1 0 3.06-3.46z" fill="#e73635"></path><path d="M397.48 503.15 a53.38 53.38 0 1 0 106.76 0 a53.38 53.38 0 1 0 -106.76 0z" fill="#d3b714"></path><path d="M461.29 148.14L483.21 148.14L483.21 178.36L461.29 178.36z" fill="#037b0b"></path><path d="M604.98 261.95 a14.39 14.39 0 1 0 28.78 0 a14.39 14.39 0 1 0 -28.78 0z" fill="#e73635"></path><path d="M832.2 523.64 a35.96 35.96 0 1 0 71.92 0 a35.96 35.96 0 1 0 -71.92 0z" stroke="#037b0b"></path><path d="M1197.78 284.04 a13.44 13.44 0 1 0 26.88 0 a13.44 13.44 0 1 0 -26.88 0z" fill="#d3b714"></path><path d="M654.37 298.1L685.19 298.1L685.19 328.92L654.37 328.92z" fill="#037b0b"></path><path d="M249.47 119.72L253.53 119.72L253.53 123.78L249.47 123.78z" stroke="#d3b714"></path><path d="M868.97 270.74a40.68 40.68 0 1 0 48.16-65.58z" fill="#e73635"></path><path d="M1214.72 407.61 a5.91 5.91 0 1 0 11.82 0 a5.91 5.91 0 1 0 -11.82 0z" stroke="#037b0b"></path><path d="M1340.88 513.81L1344.3 513.81L1344.3 517.23L1340.88 517.23z" fill="#e73635"></path><path d="M1414.18 461.36 a21.78 21.78 0 1 0 43.56 0 a21.78 21.78 0 1 0 -43.56 0z" stroke="#e73635"></path><path d="M362.06 179.21L370.55 179.21L370.55 187.7L362.06 187.7z" fill="#037b0b"></path><path d="M838.29 492.08L855.18 492.08L855.18 509.1L838.29 509.1z" fill="#d3b714"></path><path d="M1260.58 557.86L1261.56 557.86L1261.56 558.84L1260.58 558.84z" fill="#e73635"></path><path d="M302.74 101.13 a45.64 45.64 0 1 0 91.28 0 a45.64 45.64 0 1 0 -91.28 0z" stroke="#d3b714"></path><path d="M1204.91 505.28a13.21 13.21 0 1 0-11.1 23.98z" stroke="#d3b714"></path><path d="M1318.33 78.61L1341.35 78.61L1341.35 104.35L1318.33 104.35z" stroke="#e73635"></path><path d="M79.18 117.92 a28.6 28.6 0 1 0 57.2 0 a28.6 28.6 0 1 0 -57.2 0z" fill="#037b0b"></path><path d="M839.58 550.34 a41.3 41.3 0 1 0 82.6 0 a41.3 41.3 0 1 0 -82.6 0z" fill="#037b0b"></path><path d="M111.98 300.16L140.49 300.16L140.49 302.66L111.98 302.66z" fill="#d3b714"></path><path d="M490.05 289.55L543.38 289.55L543.38 342.88L490.05 342.88z" stroke="#e73635"></path><path d="M189.2 232.37 a53.49 53.49 0 1 0 106.98 0 a53.49 53.49 0 1 0 -106.98 0z" stroke="#e73635"></path><path d="M1388.71 303.67L1410.53 303.67L1410.53 323.13L1388.71 323.13z" fill="#037b0b"></path><path d="M1202.81 524.4L1213.64 524.4L1213.64 535.23L1202.81 535.23z" fill="#e73635"></path><path d="M403.13 61.5 a8.5 8.5 0 1 0 17 0 a8.5 8.5 0 1 0 -17 0z" fill="#e73635"></path><path d="M911.82 298.9L964.93 298.9L964.93 352.01L911.82 352.01z" fill="#e73635"></path><path d="M603.72 497.64L638.11 497.64L638.11 519.2L603.72 519.2z" fill="#e73635"></path></g><defs><mask id="SvgjsMask1000"><rect width="1440" height="560" fill="#ffffff"></rect></mask></defs></svg>