<svg xmlns="http://www.w3.org/2000/svg" version="1.1" xmlns:xlink="http://www.w3.org/1999/xlink" xmlns:svgjs="http://svgjs.dev/svgjs" width="1440" height="560" preserveAspectRatio="none" viewBox="0 0 1440 560"><g mask="url(&quot;#SvgjsMask1858&quot;)" fill="none"><rect width="1440" height="560" x="0" y="0" fill="url(&quot;#SvgjsLinearGradient1859&quot;)"></rect><path d="M -424.23996493021104,222 C -352.24,241.2 -208.24,310.6 -64.23996493021107,318 C 79.76,325.4 151.76,254 295.76003506978896,259 C 439.76,264 511.76,357.2 655.760035069789,343 C 799.76,328.8 871.76,181.8 1015.760035069789,188 C 1159.76,194.2 1290.91,380.4 1375.760035069789,374 C 1460.61,367.6 1427.15,199.6 1440,156" stroke="rgba(24, 80, 143, 1)" stroke-width="2"></path><path d="M -638.2659551754612,189 C -566.27,210 -422.27,303.2 -278.26595517546116,294 C -134.27,284.8 -62.27,127.2 81.73404482453884,143 C 225.73,158.8 297.73,347 441.73404482453884,373 C 585.73,399 657.73,270.6 801.7340448245388,273 C 945.73,275.4 1034.08,400.4 1161.7340448245388,385 C 1289.39,369.6 1384.35,233.8 1440,196" stroke="rgba(24, 80, 143, 1)" stroke-width="2"></path><path d="M -301.6969430728617,243 C -229.7,269.8 -85.7,394.4 58.3030569271383,377 C 202.3,359.6 274.3,160.4 418.3030569271383,156 C 562.3,151.6 634.3,351 778.3030569271383,355 C 922.3,359 994.3,171.2 1138.3030569271382,176 C 1282.3,180.8 1437.96,373 1498.3030569271382,379 C 1558.64,385 1451.66,240.6 1440,206" stroke="rgba(24, 80, 143, 1)" stroke-width="2"></path></g><defs><mask id="SvgjsMask1858"><rect width="1440" height="560" fill="#ffffff"></rect></mask><linearGradient x1="0%" y1="50%" x2="100%" y2="50%" gradientUnits="userSpaceOnUse" id="SvgjsLinearGradient1859"><stop stop-color="rgba(7, 110, 121, 1)" offset="0"></stop><stop stop-color="rgba(114, 177, 184, 1)" offset="1"></stop></linearGradient></defs></svg>